<svg xmlns="http://www.w3.org/2000/svg" viewBox="0 0 200 60" fill="none">
  <defs>
    <linearGradient id="pegasusLogoGradient" x1="0%" y1="0%" x2="100%" y2="100%">
      <stop offset="0%" style="stop-color:#6366f1;stop-opacity:1" />
      <stop offset="100%" style="stop-color:#8b5cf6;stop-opacity:1" />
    </linearGradient>
    <linearGradient id="wingLogoGradient" x1="0%" y1="0%" x2="100%" y2="0%">
      <stop offset="0%" style="stop-color:#a78bfa;stop-opacity:1" />
      <stop offset="100%" style="stop-color:#c4b5fd;stop-opacity:1" />
    </linearGradient>
  </defs>
  <!-- Icon part -->
  <g transform="translate(5, 5) scale(0.8)">
    <!-- Main body -->
    <path d="M20 48 L24 36 L32 32 L40 36 L44 48 L40 44 L32 46 L24 44 Z" fill="url(#pegasusLogoGradient)"/>
    <!-- Head -->
    <path d="M40 36 L48 28 L52 24 L50 30 L46 34 L40 36 Z" fill="url(#pegasusLogoGradient)"/>
    <!-- Wing -->
    <path d="M28 34 L16 20 L12 12 L20 16 L28 22 L32 28 L28 34 Z" fill="url(#wingLogoGradient)"/>
    <path d="M32 30 L24 18 L22 10 L28 14 L34 22 L36 28 L32 30 Z" fill="url(#wingLogoGradient)" opacity="0.8"/>
    <!-- Sparkle -->
    <circle cx="14" cy="14" r="2" fill="#fff" opacity="0.8"/>
  </g>
  <!-- Text -->
  <text x="60" y="42" font-family="system-ui, -apple-system, sans-serif" font-size="28" font-weight="700" fill="currentColor">
    Pegasus
  </text>
</svg>
